<?xml version="1.0" encoding="utf-8"?>
<!-- Generator: Adobe Illustrator 24.2.2, SVG Export Plug-In . SVG Version: 6.00 Build 0)  -->
<svg version="1.1" xmlns="http://www.w3.org/2000/svg" xmlns:xlink="http://www.w3.org/1999/xlink" x="0px" y="0px"
	 viewBox="0 0 960 682.39" style="enable-background:new 0 0 960 682.39;" xml:space="preserve">
<style type="text/css">
	.st0{fill:none;stroke:#DB8139;stroke-width:60;stroke-miterlimit:10;}
	.st1{fill:#053742;}
	.st2{fill:#F4F4F4;}
	.st3{fill:#DB8139;}
	.st4{fill:#FFFFFF;}
	.st5{fill:none;stroke:#053742;stroke-width:16;stroke-linecap:round;stroke-miterlimit:10;}
</style>
<g id="Layer_1">
</g>
<g id="Layer_2">
	<g>
		<path class="st1" d="M594.63,127.2c-95.84,47.82-76.94,125.05-20.64,211.87c6.14,18.99-10.09,34.39-39.44,44.03
			c-29.35,9.63-36.52,20.81-53.2,28.89c-35.22,35.11-38.48,61.6-16.05,81.17c42.79,30.93,116.7,36.54,208.61,27.52
			c57.72-1.06,101.38-12.84,106.91-53.66c2.08-46.11-76.04-86.39-104.1-94.01c-15.97-7.34-22.36-21.68-12.84-47.63
			c29.87-38.64,40.87-74.3,40.36-106c-0.65-40.11-21.44-73.33-64.66-92.18C639.58,127.2,616.19,120.32,594.63,127.2z"/>
		<g>
			<path class="st1" d="M469.84,563.67c-68.79,0-119.01-12.14-153.55-37.11l-1.11-0.8l-1.03-0.9
				c-19.43-16.95-24.02-35.77-24.44-48.56c-0.81-24.45,11.96-49.46,39.04-76.46l3.56-3.55l4.53-2.2c3.94-1.91,7.45-4.35,11.88-7.44
				c9.89-6.89,22.19-15.46,45.05-22.96c9.13-2.99,14.73-6.06,17.84-8.27c-26.97-43.11-56.9-103.2-41.61-159.25
				c9.83-36.03,36.68-65.21,79.8-86.73l2.07-1.03l2.2-0.7c9.31-2.97,19.52-4.48,30.35-4.48c17.14,0,30.69,3.84,32.17,4.28l1.8,0.53
				l1.72,0.75c26.34,11.48,46.89,27.88,61.1,48.72c13.89,20.38,21.14,44.09,21.57,70.47c0.66,40.52-13.97,81.11-43.48,120.7
				c-0.8,2.71-1.13,4.65-1.26,5.93c18.01,5.76,44.71,18.47,68.38,35.92c45.47,33.51,53.87,65.78,52.92,86.94l-0.06,1.34l-0.18,1.33
				c-2.81,20.73-14.05,48.88-51.66,65.22c-20.83,9.05-47.3,13.63-83.23,14.38C517.32,562.35,492.3,563.67,469.84,563.67
				C469.84,563.67,469.84,563.67,469.84,563.67z"/>
			<path class="st2" d="M484.42,133.23c13.32,0,23.71,3.06,23.71,3.06c43.22,18.85,64.01,52.07,64.66,92.18
				c0.51,31.7-10.49,67.36-40.36,106c-9.52,25.95-3.13,40.29,12.84,47.63c28.07,7.62,106.18,47.91,104.1,94.01
				c-5.53,40.82-49.19,52.59-106.91,53.66c-25.72,2.53-50.02,3.91-72.63,3.91c-58.19,0-105.16-9.14-135.97-31.42
				c-22.43-19.57-19.17-46.06,16.05-81.17c16.68-8.09,23.85-19.26,53.2-28.89c29.35-9.63,45.58-25.04,39.44-44.03
				c-56.31-86.82-75.21-164.05,20.64-211.87C470.38,134,477.76,133.23,484.42,133.23 M484.42,73.23c-13.93,0-27.21,1.98-39.47,5.9
				l-4.41,1.41l-4.14,2.07c-24.56,12.25-44.94,27.02-60.59,43.89c-16.83,18.15-28.53,38.94-34.76,61.78
				c-8.48,31.08-6.6,65.49,5.57,102.29c5.29,16,12.58,32.72,22.02,50.49c-17.65,7.44-29,15.34-37.08,20.97
				c-3.84,2.67-6.09,4.23-7.83,5.07l-9.06,4.39l-7.13,7.11c-14.61,14.57-25.53,28.56-33.38,42.78
				c-10.21,18.49-15.07,37.3-14.46,55.92c0.62,18.74,7.15,46.13,34.7,70.17l2.07,1.81l2.23,1.61c39.83,28.8,95.81,42.8,171.13,42.8
				c23.11,0,48.72-1.33,76.16-3.97c39.39-0.91,69.12-6.28,93.41-16.83c39.33-17.09,63.99-48.6,69.43-88.7l0.36-2.67l0.12-2.69
				c1.28-28.46-8.96-71.08-65.09-112.44c-13.99-10.31-29.06-19.18-43.21-26.23c21.71-36.77,32.38-74.53,31.76-112.64
				c-1.06-65.48-37.75-118.77-100.67-146.21l-3.45-1.5l-3.61-1.06C520.68,77.44,504.79,73.23,484.42,73.23L484.42,73.23z
				 M394.16,330.99C394.16,330.99,394.16,330.99,394.16,330.99L394.16,330.99L394.16,330.99z"/>
		</g>
		<g>
			<path class="st1" d="M329.31,570.4c-68.79,0-119.01-12.14-153.55-37.11l-1.11-0.8l-1.04-0.9
				c-19.43-16.96-24.02-35.77-24.44-48.56c-0.81-24.45,11.96-49.46,39.04-76.46l3.56-3.55l4.53-2.2c3.94-1.91,7.45-4.35,11.88-7.44
				c9.88-6.89,22.19-15.46,45.05-22.96c9.13-2.99,14.73-6.06,17.84-8.26c-26.97-43.11-56.9-103.2-41.61-159.25
				c9.83-36.03,36.68-65.21,79.8-86.73l2.07-1.03l2.2-0.7c9.31-2.97,19.52-4.48,30.35-4.48c17.14,0,30.69,3.84,32.17,4.28l1.8,0.53
				l1.72,0.75c26.34,11.48,46.89,27.88,61.1,48.72c13.89,20.38,21.14,44.09,21.57,70.47c0.66,40.52-13.97,81.11-43.48,120.7
				c-0.8,2.71-1.13,4.65-1.26,5.93c18.01,5.76,44.71,18.47,68.38,35.92c45.47,33.51,53.87,65.78,52.92,86.94l-0.06,1.34l-0.18,1.33
				c-2.81,20.73-14.05,48.88-51.66,65.22c-20.83,9.05-47.3,13.63-83.23,14.38C376.79,569.08,351.77,570.4,329.31,570.4
				C329.31,570.4,329.31,570.4,329.31,570.4z"/>
			<path class="st2" d="M343.89,139.96c13.32,0,23.71,3.06,23.71,3.06c43.22,18.85,64.01,52.07,64.66,92.18
				c0.51,31.7-10.49,67.36-40.36,106c-9.52,25.95-3.13,40.29,12.84,47.63c28.07,7.62,106.18,47.91,104.1,94.01
				c-5.53,40.82-49.19,52.59-106.91,53.66c-25.72,2.53-50.02,3.91-72.63,3.91c-58.19,0-105.16-9.14-135.97-31.42
				c-22.43-19.57-19.17-46.06,16.05-81.17c16.68-8.09,23.85-19.26,53.2-28.89c29.35-9.63,45.58-25.04,39.44-44.03
				c-56.31-86.82-75.21-164.05,20.64-211.87C329.85,140.73,337.23,139.96,343.89,139.96 M343.89,79.96
				c-13.93,0-27.21,1.98-39.47,5.9l-4.41,1.41l-4.14,2.07c-24.56,12.25-44.94,27.02-60.59,43.89
				c-16.83,18.15-28.53,38.94-34.76,61.78c-8.48,31.08-6.6,65.49,5.57,102.29c5.29,16,12.58,32.72,22.02,50.49
				c-17.65,7.44-29,15.34-37.08,20.97c-3.84,2.67-6.09,4.23-7.83,5.07l-9.06,4.39l-7.13,7.11c-14.61,14.57-25.53,28.56-33.38,42.78
				c-10.21,18.49-15.07,37.3-14.46,55.92c0.62,18.74,7.15,46.13,34.7,70.17l2.07,1.81l2.23,1.61c39.83,28.8,95.81,42.8,171.13,42.8
				c23.11,0,48.72-1.33,76.16-3.97c39.39-0.91,69.12-6.28,93.41-16.83c39.33-17.09,63.99-48.6,69.43-88.7l0.36-2.67l0.12-2.69
				c1.28-28.46-8.96-71.08-65.09-112.44c-13.99-10.31-29.06-19.18-43.21-26.23c21.71-36.77,32.38-74.53,31.76-112.64
				c-1.06-65.48-37.75-118.77-100.67-146.21l-3.45-1.5l-3.61-1.06C380.15,84.17,364.26,79.96,343.89,79.96L343.89,79.96z"/>
		</g>
	</g>
</g>
<g id="Layer_3">
</g>
</svg>
