<?xml version="1.0" encoding="utf-8"?>
<!-- Generator: Adobe Illustrator 24.2.2, SVG Export Plug-In . SVG Version: 6.00 Build 0)  -->
<svg version="1.1" xmlns="http://www.w3.org/2000/svg" xmlns:xlink="http://www.w3.org/1999/xlink" x="0px" y="0px"
	 viewBox="0 0 960 682.39" style="enable-background:new 0 0 960 682.39;" xml:space="preserve">
<style type="text/css">
	.st0{fill:none;stroke:#DB8139;stroke-width:60;stroke-miterlimit:10;}
	.st1{fill:#053742;}
	.st2{fill:#FFFFFF;}
	.st3{fill:#DB8139;}
	.st4{fill:none;stroke:#053742;stroke-width:16;stroke-linecap:round;stroke-miterlimit:10;}
</style>
<g id="Layer_1">
</g>
<g id="Layer_2">
</g>
<g id="Layer_3">
	<path class="st1" d="M213.98,136.94v421.11h272.6c-7.54-9.31-14.01-18.93-18.73-29.04H251.24v-273.5h420.2l0,64.64
		c13.55,5.94,25.86,13.28,37.14,21.78V136.94h-64.26c0,81.02-113.33,81.02-113.33,0H391.92c0,81.17-111.67,81.17-111.67,0H213.98z"
		/>
	<path class="st1" d="M335.09,184.06L335.09,184.06c-21.15,0-38.45-17.3-38.45-38.45v-36.23c0-21.15,17.3-38.45,38.45-38.45h0
		c21.15,0,38.45,17.3,38.45,38.45v36.23C373.54,166.76,356.23,184.06,335.09,184.06z"/>
	<path class="st1" d="M587.31,183.06L587.31,183.06c-21.15,0-38.45-17.3-38.45-38.45v-36.23c0-21.15,17.3-38.45,38.45-38.45h0
		c21.15,0,38.45,17.3,38.45,38.45v36.23C625.76,165.76,608.46,183.06,587.31,183.06z"/>
	<rect x="299.85" y="366.97" class="st3" width="51.52" height="51.52"/>
	<rect x="392.03" y="366.97" class="st3" width="51.97" height="50.9"/>
	<rect x="392.03" y="289.92" class="st3" width="51.97" height="50.14"/>
	<rect x="484.36" y="289.92" class="st3" width="50.98" height="50.98"/>
	<rect x="577.31" y="289.92" class="st3" width="51.27" height="51.27"/>
	<rect x="299.85" y="443.4" class="st3" width="51.52" height="51.52"/>
	<rect x="392.03" y="444.01" class="st3" width="51.97" height="50.9"/>
	<g>
		<ellipse class="st1" cx="610.86" cy="461.98" rx="145.35" ry="142.6"/>
		<path class="st2" d="M610.86,327.38c75.86,0,137.35,60.26,137.35,134.6s-61.49,134.6-137.35,134.6s-137.35-60.26-137.35-134.6
			S535,327.38,610.86,327.38 M610.86,311.38c-40.9,0-79.37,15.62-108.32,44c-29.04,28.46-45.03,66.32-45.03,106.6
			s15.99,78.15,45.03,106.6c28.95,28.37,67.42,44,108.32,44s79.37-15.62,108.32-44c29.04-28.46,45.03-66.32,45.03-106.6
			s-15.99-78.15-45.03-106.6C690.23,327.01,651.76,311.38,610.86,311.38L610.86,311.38z"/>
	</g>
	<circle class="st2" cx="610.1" cy="459.54" r="103.52"/>
	<g>
		<path class="st1" d="M610.86,487.02c-13.81,0-25.04-11.23-25.04-25.04s11.24-25.04,25.04-25.04s25.04,11.23,25.04,25.04
			S624.67,487.02,610.86,487.02z"/>
		<path class="st2" d="M610.86,444.94c9.41,0,17.04,7.63,17.04,17.04c0,9.41-7.63,17.04-17.04,17.04s-17.04-7.63-17.04-17.04
			C593.82,452.57,601.45,444.94,610.86,444.94 M610.86,428.94c-18.22,0-33.04,14.82-33.04,33.04s14.82,33.04,33.04,33.04
			s33.04-14.82,33.04-33.04S629.08,428.94,610.86,428.94L610.86,428.94z"/>
	</g>
	<g>
		<line class="st4" x1="610.86" y1="461.98" x2="671.78" y2="413.13"/>
	</g>
</g>
</svg>
